<?xml version="1.0" standalone="no"?>
<!DOCTYPE svg PUBLIC "-//W3C//DTD SVG 20010904//EN"
 "http://www.w3.org/TR/2001/REC-SVG-20010904/DTD/svg10.dtd">
<svg version="1.0" xmlns="http://www.w3.org/2000/svg"
 width="256.000000pt" height="256.000000pt" viewBox="0 0 256.000000 256.000000"
 preserveAspectRatio="xMidYMid meet">
<metadata>
Created by potrace 1.11, written by Peter Selinger 2001-2013
</metadata>
<g transform="translate(0.000000,256.000000) scale(0.100000,-0.100000)"
fill="#000000" stroke="none">
<path d="M293 2248 c-3 -136 -17 -308 -25 -308 -5 0 -8 -2 -8 -5 0 -3 0 -10 0
-16 0 -5 4 -8 9 -4 5 3 12 1 16 -5 3 -5 -3 -10 -14 -10 -28 0 -27 -18 1 -30
18 -7 19 -9 6 -9 -22 -1 -25 -41 -3 -41 12 0 15 -17 17 -87 5 -224 -8 -332
-44 -378 -11 -14 -16 -29 -13 -35 8 -12 175 -13 194 -1 12 8 9 15 -12 41 -15
17 -30 44 -33 58 -3 15 -10 43 -15 62 -5 19 -9 45 -9 57 0 20 3 21 23 12 18
-8 33 -7 62 5 l37 16 -6 58 c-19 173 -19 204 -2 214 20 11 20 92 -1 109 -7 6
-13 29 -13 51 0 57 -28 150 -52 171 -11 9 -34 17 -50 17 l-30 0 4 70 c3 64 1
70 -17 70 -18 0 -20 -7 -22 -82z m68 -88 c35 0 48 -38 42 -122 -6 -78 -6 -78
-34 -78 l-29 0 0 79 c0 43 -2 94 -5 112 -3 19 -3 28 1 22 3 -7 14 -13 25 -13z
m6 -246 c-3 -3 -12 -4 -19 -1 -8 3 -5 6 6 6 11 1 17 -2 13 -5z m25 -188 c2
-69 8 -109 17 -120 10 -11 11 -20 4 -27 -16 -16 -31 12 -42 81 -16 95 -14 170
3 170 11 0 15 -24 18 -104z m35 82 c-3 -8 -6 -5 -6 6 -1 11 2 17 5 13 3 -3 4
-12 1 -19z m0 -170 c-3 -7 -5 -2 -5 12 0 14 2 19 5 13 2 -7 2 -19 0 -25z"/>
<path d="M1233 2299 c-6 -6 -9 -18 -6 -25 3 -9 -2 -14 -14 -14 -25 0 -48 -56
-27 -68 19 -10 4 -61 -39 -132 l-33 -55 -61 -2 c-34 -1 -75 -9 -92 -18 -48
-24 -85 -87 -86 -146 -1 -53 -16 -76 -53 -82 -29 -4 -110 -83 -128 -124 -28
-64 -12 -126 48 -189 l30 -32 -32 -56 c-42 -74 -32 -84 11 -11 32 51 36 55 64
50 91 -16 123 -17 153 -1 65 33 106 121 103 218 -1 37 3 51 19 65 51 45 100
100 111 125 14 35 5 88 -21 121 l-20 26 42 86 c31 62 49 87 65 92 23 5 34 43
13 43 -5 0 -10 5 -10 10 0 6 9 10 21 10 14 0 19 5 17 18 -2 10 -11 16 -23 14
-17 -3 -17 -2 -3 20 28 43 -14 92 -49 57z m-54 -425 c6 -20 4 -43 -4 -68 -14
-39 -51 -86 -69 -86 -5 0 -19 -9 -31 -20 -19 -18 -24 -19 -34 -6 -10 12 -1 35
45 125 62 118 73 125 93 55z m-149 -201 c-1 -5 -7 -19 -15 -33 -22 -38 -19
-60 8 -60 17 0 19 2 8 9 -11 7 -12 15 -4 33 10 23 10 22 17 -9 11 -47 -19
-140 -54 -173 -41 -38 -89 -46 -158 -24 -19 6 5 37 63 85 44 36 76 83 105 152
11 24 31 38 30 20z"/>
<path d="M1700 2133 c0 -5 -35 -7 -77 -5 -87 3 -114 -7 -97 -35 8 -13 34 -21
85 -29 l74 -11 -81 -2 -81 -1 -6 -71 c-7 -83 -3 -97 29 -105 24 -6 24 -8 24
-131 0 -113 2 -124 18 -121 15 3 17 18 20 122 3 146 11 158 75 127 24 -12 46
-21 50 -21 3 0 18 -11 33 -25 27 -25 80 -45 120 -45 18 0 22 -8 28 -52 3 -29
6 -101 6 -160 0 -98 2 -108 18 -108 17 0 19 13 25 157 8 187 11 193 96 193 31
0 70 4 88 9 l31 9 6 -54 c3 -30 9 -79 12 -109 4 -37 11 -55 20 -55 11 0 14 24
14 119 l0 120 70 22 c66 22 70 24 70 53 0 23 -7 35 -28 47 -17 10 -32 29 -38
50 l-10 34 -71 3 -72 3 -3 32 c-3 31 -5 32 -58 38 -30 4 -74 4 -97 1 -37 -4
-43 -8 -43 -27 0 -23 0 -23 -57 -8 -32 8 -70 21 -85 29 -28 15 -108 20 -108 7z
m38 -90 c-10 -2 -26 -2 -35 0 -10 3 -2 5 17 5 19 0 27 -2 18 -5z m339 -130
c15 -7 21 -12 12 -13 -23 0 -69 38 -69 58 1 12 5 10 15 -8 7 -14 26 -30 42
-37z"/>
<path d="M2176 1188 c-7 -18 -17 -42 -21 -53 -5 -11 -7 -26 -6 -34 1 -8 -2
-17 -7 -20 -5 -3 -24 -32 -42 -64 -18 -31 -41 -62 -51 -68 -10 -5 -19 -17 -20
-27 0 -9 -33 -78 -73 -152 l-72 -135 -55 -1 c-101 -2 -164 -38 -204 -117 -75
-151 26 -317 192 -317 105 0 187 65 214 171 16 60 -1 122 -48 184 l-34 45 122
228 c67 125 131 236 141 247 40 43 68 78 68 86 0 4 -5 20 -12 34 -9 20 -18 25
-45 25 -29 0 -36 -5 -47 -32z m-346 -618 c0 -23 -71 -150 -90 -160 -15 -8 -18
-17 -13 -40 5 -29 -9 -60 -28 -60 -16 0 -39 59 -39 100 0 44 26 104 57 132 35
32 113 51 113 28z m115 -90 c17 -32 21 -145 5 -135 -5 3 -27 -6 -49 -20 -22
-15 -59 -29 -83 -32 -40 -6 -42 -5 -28 11 8 10 25 22 38 27 13 5 22 15 19 22
-2 6 2 26 11 42 15 32 66 115 69 115 1 0 9 -13 18 -30z m-5 -168 c0 -14 -75
-51 -118 -58 -30 -5 -42 -3 -42 5 0 7 4 9 10 6 14 -9 91 14 120 36 29 21 30
22 30 11z m-180 -18 c0 -16 -23 -44 -35 -44 -18 0 -18 5 -5 31 10 17 40 27 40
13z"/>
<path d="M335 1196 c-21 -15 -26 -83 -6 -95 7 -5 13 -12 13 -17 3 -27 12 -41
35 -54 22 -13 32 -37 68 -163 l42 -148 -53 -53 c-73 -72 -73 -100 -2 -197 9
-13 9 -33 -2 -89 -12 -62 -12 -78 1 -114 34 -100 196 -114 323 -27 98 68 100
170 4 268 -36 37 -41 48 -47 107 -9 82 -23 98 -95 104 l-54 4 -52 154 c-28 84
-54 168 -57 186 -3 18 -17 59 -31 90 -27 62 -48 72 -87 44z m325 -506 c22 -12
40 -61 40 -111 0 -30 8 -46 36 -76 88 -95 96 -173 22 -239 -62 -57 -180 -74
-230 -34 -29 22 -50 92 -43 139 3 17 7 44 10 60 3 23 -3 39 -30 71 -46 55 -47
99 -6 141 16 16 34 29 39 29 15 0 30 -68 24 -112 -5 -38 -2 -44 28 -69 43 -36
65 -96 45 -119 -17 -19 -20 -40 -5 -40 6 0 37 7 70 17 46 12 60 21 60 35 0 12
-7 18 -24 18 -34 0 -57 61 -49 128 5 43 3 51 -19 68 -21 17 -48 70 -48 95 0
12 57 11 80 -1z m-40 -186 c-17 -19 -54 -18 -71 3 -13 15 -12 15 9 2 28 -17
55 -3 61 32 l5 24 4 -23 c2 -13 -2 -30 -8 -38z"/>
<path d="M1147 1140 c-34 -44 -54 -60 -72 -60 -29 0 -91 -35 -99 -56 -3 -8 -1
-27 5 -42 9 -23 7 -29 -13 -42 -66 -43 -218 -161 -218 -169 0 -24 21 -16 78
30 34 27 62 47 62 43 0 -4 -22 -31 -50 -60 -50 -53 -61 -74 -37 -74 10 0 88
88 173 197 13 16 14 6 12 -80 l-2 -98 29 -15 c15 -8 35 -12 44 -10 24 8 88 -9
106 -28 19 -18 31 -20 40 -6 9 15 178 13 194 -2 10 -11 15 -10 25 4 13 17 88
48 119 48 9 0 17 7 17 15 0 10 7 15 18 13 16 -3 17 10 17 147 0 143 -1 150
-21 160 -12 6 -29 17 -38 24 -9 7 -22 11 -30 8 -7 -3 -33 -1 -57 5 -24 6 -87
10 -139 9 l-95 -2 33 28 c18 15 32 31 32 36 0 17 -26 4 -66 -33 -40 -37 -74
-51 -74 -32 0 4 18 25 40 47 34 34 43 55 22 55 -4 0 -29 -27 -55 -60z m356
-105 c40 -17 15 -31 -78 -41 -130 -14 -197 -15 -210 -4 -9 8 -20 8 -32 2 -17
-9 -56 -7 -92 4 -10 3 -4 12 20 29 33 24 38 24 204 21 94 -1 178 -6 188 -11z
m66 -46 c-19 -12 -24 -2 -8 17 9 11 14 13 17 4 3 -7 -2 -16 -9 -21z m-554 12
c3 -5 1 -12 -5 -16 -5 -3 -10 1 -10 9 0 18 6 21 15 7z m508 -32 c-5 -5 -30
-12 -56 -15 -38 -5 -47 -4 -47 8 0 10 17 18 53 24 50 9 69 2 50 -17z m-116 -1
c-3 -8 -6 -5 -6 6 -1 11 2 17 5 13 3 -3 4 -12 1 -19z m-256 2 c11 0 19 -7 19
-16 0 -14 -8 -16 -46 -10 -53 7 -67 13 -58 28 4 5 20 7 36 4 17 -3 39 -6 49
-6z m239 -15 c0 -14 -17 -17 -95 -17 -74 0 -98 3 -89 11 10 11 54 17 132 19
40 2 52 -1 52 -13z m197 -167 c-3 -8 -6 -5 -6 6 -1 11 2 17 5 13 3 -3 4 -12 1
-19z m-287 -17 c0 -5 3 -16 6 -25 4 -11 1 -16 -10 -16 -10 0 -16 9 -16 25 0
14 5 25 10 25 6 0 10 -4 10 -9z m107 -63 c-3 -8 -6 -5 -6 6 -1 11 2 17 5 13 3
-3 4 -12 1 -19z"/>
</g>
</svg>
